<svg width="32" height="32" viewBox="0 0 32 32" fill="none" xmlns="http://www.w3.org/2000/svg">
<path d="M27.6514 25.8783L26.0907 23.6082C25.138 22.2217 24.6268 20.5801 24.6268 18.8997V13.764C24.6268 9.76714 21.9275 6.4026 18.2485 5.38551V3.32424C18.2485 2.0403 17.2068 1 15.921 1C14.6353 1 13.5935 2.0403 13.5935 3.32424V5.38551C9.9164 6.4026 7.21519 9.76714 7.21519 13.764V18.8997C7.21519 20.5801 6.70594 22.2217 5.75132 23.6082L4.19062 25.8783C3.70072 26.5918 4.21193 27.5605 5.07748 27.5605H12.4743C12.5731 29.3782 14.0757 30.8226 15.921 30.8226C17.7664 30.8226 19.2689 29.3782 19.3677 27.5605H26.7646C27.6301 27.5605 28.1413 26.5898 27.6514 25.8783Z" fill="#0000FE"/>
</svg>
