<svg width="32" height="32" viewBox="0 0 32 32" fill="none" xmlns="http://www.w3.org/2000/svg">
<path d="M6.54774 17.7283C6.42618 17.7283 6.31694 17.7951 6.26232 17.9024L1.90558 26.4138H25.8069C26.198 26.4138 26.5574 26.1939 26.7353 25.8455L30.8965 17.7283H6.54598H6.54774Z" fill="#0000FE"/>
<path d="M31.2418 17.0598L31.2665 17.0123C31.2559 16.9947 31.2524 16.9912 31.2418 16.9736V17.0598Z" fill="#0000FE"/>
<path d="M4.91459 17.1108C5.22994 16.4951 5.85531 16.1133 6.54943 16.1133H26.1698V9.68143C26.1698 9.26624 25.8333 8.93022 25.4175 8.93022H12.6274C12.3913 8.93022 12.1729 8.81235 12.0425 8.61707L10.7388 6.64493C10.6085 6.44965 10.39 6.33179 10.154 6.33179H1.75226C1.33649 6.33179 1 6.6678 1 7.08299V24.7601L4.91459 17.1126V17.1108Z" fill="#0000FE"/>
</svg>
