<svg width="32" height="32" viewBox="0 0 32 32" fill="none" xmlns="http://www.w3.org/2000/svg">
<path d="M29.9931 14.9282C29.9167 13.0019 28.3249 11.4932 26.3677 11.4932C24.1855 11.4932 21.128 11.487 19.4247 11.4662C19.9057 10.3419 21.3509 6.54531 20.1349 4.03916C19.6415 3.01883 18.7929 2.34138 17.6802 2.0837L17.5873 2.06292C16.4456 1.84472 15.3823 2.19592 14.635 3.08741L14.5668 3.183C14.3067 3.58614 14.0073 4.19709 13.6254 4.97013C12.7294 6.79052 11.3751 9.54396 9.7957 11.0672L9.62846 11.2293C9.45091 11.4038 9.23827 11.6033 9.04007 11.7633C8.52806 11.3394 7.88392 11.0755 7.17165 11.0755H4.96261C3.32956 11.0755 2 12.4138 2 14.0596V27.0849C2 28.7287 3.32956 30.0669 4.96261 30.0669H7.17165C7.99334 30.0669 8.73658 29.7282 9.27336 29.1838C9.34356 29.2191 9.41376 29.2586 9.48808 29.2856C9.59338 29.3272 9.6966 29.3729 9.79776 29.4269C9.94435 29.5038 10.095 29.5869 10.2499 29.6742C11.8189 30.5428 13.6151 31 15.4463 31H23.2771C25.0278 31 26.535 29.7926 26.8612 28.1302C26.9933 27.4527 26.9293 26.7607 26.6898 26.1352C27.5425 25.4661 28.0731 24.4229 28.0731 23.307C28.0731 22.802 27.9657 22.3033 27.7613 21.8461C28.4984 21.1791 28.9319 20.2252 28.9319 19.1903C28.9319 18.7332 28.8431 18.2802 28.6738 17.8583C29.5327 17.158 30.0426 16.0753 29.9972 14.9303L29.9931 14.9282ZM7.81785 27.0828C7.81785 27.4423 7.52678 27.7354 7.16961 27.7354H4.96054C4.60338 27.7354 4.31227 27.4423 4.31227 27.0828V14.0575C4.31227 13.698 4.60338 13.405 4.96054 13.405H7.16961C7.52678 13.405 7.81785 13.698 7.81785 14.0575V27.0828ZM26.9148 16.2229C26.5102 16.3912 26.2005 16.7486 26.0911 17.1788C25.9796 17.6089 26.0766 18.0723 26.3471 18.4215C26.4689 18.5752 26.6134 18.835 26.6134 19.1883C26.6134 19.6662 26.3471 20.0964 25.9197 20.3083C25.5295 20.5016 25.2529 20.8611 25.162 21.2913C25.0712 21.7235 25.1806 22.1661 25.4635 22.5049C25.5956 22.6628 25.7546 22.9309 25.7546 23.3028C25.7546 23.814 25.4366 24.2816 24.9659 24.4666C24.553 24.6266 24.2371 24.9778 24.1174 25.4058C23.9956 25.8381 24.0864 26.3098 24.3589 26.6652C24.5778 26.9519 24.6583 27.3135 24.5881 27.6772C24.4787 28.2424 23.913 28.6663 23.2751 28.6663H15.4443C14.0032 28.6663 12.5911 28.3068 11.3647 27.6294C11.1954 27.5359 11.0323 27.4465 10.8713 27.3613C10.6896 27.2657 10.5018 27.1805 10.3098 27.1057C10.2107 27.0683 10.1343 26.9166 10.1343 26.7587V13.9973C10.1343 13.8622 10.2623 13.7583 10.3056 13.7271C10.6649 13.4632 10.9849 13.1494 11.2409 12.9L11.4019 12.7442C13.2745 10.9425 14.7361 7.96671 15.7044 5.99878C16.0203 5.35666 16.2949 4.79766 16.4807 4.49634C16.5612 4.41113 16.749 4.27191 17.162 4.34879C17.5914 4.45062 17.868 4.66674 18.0559 5.05534C18.6567 6.29386 18.0807 8.86235 17.226 10.7118C17.0711 11.0111 16.7883 11.5805 16.7346 11.6927L16.6665 11.8776C16.555 12.2828 16.6293 12.7213 16.8647 13.0725C17.1269 13.4653 17.5625 13.723 18.0353 13.7583C18.8714 13.8206 25.6121 13.8227 26.3698 13.8206C27.0676 13.8206 27.656 14.3568 27.6808 15.0176C27.7014 15.5371 27.3938 16.0213 26.9148 16.2208V16.2229Z" fill="#0000FE"/>
</svg>
