<svg width="32" height="32" viewBox="0 0 32 32" fill="none" xmlns="http://www.w3.org/2000/svg">
<path d="M1.32286 16.2945L5.77839 11.8394V5.93593C5.77839 5.53374 6.10563 5.20695 6.50839 5.20695H9.73241C10.1352 5.20695 10.4624 5.53374 10.4624 5.93593V7.15606L15.1987 2.42057C15.7583 1.85981 16.6684 1.85981 17.228 2.42057L31.1058 16.2964C31.7797 16.9693 31.3091 18.1218 30.3545 18.1314L27.6068 18.1566V28.927C27.6068 29.3098 27.297 29.6192 26.9136 29.6192H20.1035C19.7201 29.6192 19.4103 29.3098 19.4103 28.927V21.7338H13.0126V28.927C13.0126 29.3098 12.7028 29.6192 12.3194 29.6192H5.50924C5.12584 29.6192 4.81602 29.3098 4.81602 28.927V18.1566L2.06835 18.1314C1.11373 18.1218 0.643195 16.9693 1.31704 16.2964L1.32286 16.2945Z" fill="#0000FE"/>
</svg>
