<svg width="32" height="32" viewBox="0 0 32 32" fill="none" xmlns="http://www.w3.org/2000/svg">
<path d="M26.4627 21.9328C24.9747 21.9328 23.6553 22.6562 22.827 23.766L9.88767 17.0833C10.0068 16.673 10.0746 16.2463 10.0746 15.8141C10.0746 15.5138 10.0434 15.2189 9.98662 14.9314L22.9791 8.43362C23.8129 9.43172 25.0645 10.069 26.4627 10.069C28.9641 10.069 31 8.03437 31 5.53452C31 3.03468 28.9641 1 26.4627 1C23.9613 1 21.9254 3.03468 21.9254 5.53452C21.9254 5.89531 21.9731 6.24511 22.0519 6.58208L9.11802 13.0505C8.26956 11.9554 6.95565 11.2814 5.53546 11.2814C3.03408 11.2814 1 13.3161 1 15.8141C1 18.3121 3.03408 20.3468 5.53546 20.3468C6.81088 20.3468 8.01118 19.7992 8.86147 18.8817L21.9987 25.667C21.9529 25.9271 21.9236 26.1926 21.9236 26.4655C21.9236 28.9653 23.9595 31 26.4609 31C28.9622 31 30.9982 28.9653 30.9982 26.4655C30.9982 23.9656 28.9622 21.931 26.4609 21.931L26.4627 21.9328Z" fill="#0000FE"/>
</svg>
