<svg width="32" height="32" viewBox="0 0 32 32" fill="none" xmlns="http://www.w3.org/2000/svg">
<path d="M21.8433 18.471C21.4309 18.471 21.0165 18.3143 20.7009 17.9992C20.0696 17.3688 20.0696 16.3478 20.7009 15.7194L26.5118 9.91652C27.815 8.61518 27.815 6.49978 26.5118 5.19843C25.2087 3.89709 23.0903 3.89709 21.7872 5.19843L15.9762 11.0013C15.3449 11.6317 14.3225 11.6317 13.6932 11.0013C13.062 10.3709 13.062 9.34996 13.6932 8.72153L19.5042 2.91866C22.066 0.360447 26.235 0.360447 28.7967 2.91866C31.3585 5.47687 31.3585 9.64002 28.7967 12.1982L22.9858 18.0011C22.6701 18.3163 22.2577 18.4729 21.8433 18.4729V18.471Z" fill="#0000FE"/>
<path d="M7.56663 30.6742C5.88394 30.6742 4.20126 30.0341 2.92133 28.756C0.359546 26.1978 0.359546 22.0346 2.92133 19.4764L8.73231 13.6736C9.36356 13.0432 10.3859 13.0432 11.0153 13.6736C11.6465 14.3039 11.6465 15.3249 11.0153 15.9533L5.20428 21.7562C3.90112 23.0576 3.90112 25.173 5.20428 26.4743C6.50744 27.7756 8.62581 27.7756 9.92897 26.4743L15.74 20.6714C16.3712 20.0411 17.3936 20.0411 18.0229 20.6714C18.6541 21.3018 18.6541 22.3228 18.0229 22.9512L12.2119 28.7541C10.9301 30.0322 9.24931 30.6722 7.56663 30.6722V30.6742Z" fill="#0000FE"/>
<path d="M12.7192 20.5824C12.3068 20.5824 11.8924 20.4258 11.5768 20.1106C10.9456 19.4803 10.9456 18.4593 11.5768 17.8309L17.8564 11.5601C18.4876 10.9297 19.51 10.9297 20.1393 11.5601C20.7706 12.1904 20.7706 13.2114 20.1393 13.8398L13.8598 20.1106C13.5441 20.4258 13.1317 20.5824 12.7173 20.5824H12.7192Z" fill="#0000FE"/>
</svg>
