<svg width="32" height="32" viewBox="0 0 32 32" fill="none" xmlns="http://www.w3.org/2000/svg">
<path d="M3.6858 8.48911C5.11876 8.48911 6.28041 7.32908 6.28041 5.89812C6.28041 4.46716 5.11876 3.30713 3.6858 3.30713C2.25283 3.30713 1.09119 4.46716 1.09119 5.89812C1.09119 7.32908 2.25283 8.48911 3.6858 8.48911Z" fill="#0000FE"/>
<path d="M27.4054 3.30713H13.7117C12.2795 3.30713 11.1172 4.46784 11.1172 5.89812C11.1172 7.3284 12.2795 8.48911 13.7117 8.48911H27.4054C28.8377 8.48911 30 7.3284 30 5.89812C30 4.46784 28.8377 3.30713 27.4054 3.30713Z" fill="#0000FE"/>
<path d="M3.6858 18.7171C5.11876 18.7171 6.28041 17.5571 6.28041 16.1261C6.28041 14.6952 5.11876 13.5352 3.6858 13.5352C2.25283 13.5352 1.09119 14.6952 1.09119 16.1261C1.09119 17.5571 2.25283 18.7171 3.6858 18.7171Z" fill="#0000FE"/>
<path d="M27.4054 13.5352H13.7117C12.2795 13.5352 11.1172 14.6959 11.1172 16.1261C11.1172 17.5564 12.2795 18.7171 13.7117 18.7171H27.4054C28.8377 18.7171 30 17.5564 30 16.1261C30 14.6959 28.8377 13.5352 27.4054 13.5352Z" fill="#0000FE"/>
<path d="M3.6858 28.9453C5.11876 28.9453 6.28041 27.7853 6.28041 26.3543C6.28041 24.9233 5.11876 23.7633 3.6858 23.7633C2.25283 23.7633 1.09119 24.9233 1.09119 26.3543C1.09119 27.7853 2.25283 28.9453 3.6858 28.9453Z" fill="#0000FE"/>
<path d="M27.4054 23.7633H13.7117C12.2795 23.7633 11.1172 24.924 11.1172 26.3543C11.1172 27.7846 12.2795 28.9453 13.7117 28.9453H27.4054C28.8377 28.9453 30 27.7846 30 26.3543C30 24.924 28.8377 23.7633 27.4054 23.7633Z" fill="#0000FE"/>
</svg>
