<svg width="32" height="32" viewBox="0 0 32 32" fill="none" xmlns="http://www.w3.org/2000/svg">
<path d="M23.5743 13.7946H23.5394V9.15774C23.5394 5.362 20.9776 1.87565 17.2482 1.15246C12.2312 0.177905 7.82402 4.00845 7.82402 8.84643V13.7946H7.78918C6.80165 13.7946 6 14.5952 6 15.5813V27.9044C6 29.2464 7.09015 30.335 8.43398 30.335H22.9314C24.2752 30.335 25.3654 29.2464 25.3654 27.9044V15.5813C25.3654 14.5952 24.5637 13.7946 23.5762 13.7946H23.5743ZM10.4846 8.84643C10.4846 5.98464 12.8159 3.65652 15.6817 3.65652C18.5475 3.65652 20.8789 5.98464 20.8789 8.84643V13.7946H10.4846V8.84643Z" fill="#0000FE"/>
</svg>
