<svg width="32" height="32" viewBox="0 0 32 32" fill="none" xmlns="http://www.w3.org/2000/svg">
<path d="M8.83594 18.9526C8.81172 18.9513 8.79153 18.9459 8.76731 18.9446C8.41608 18.9217 8.14695 18.6234 8.14695 18.2727V17.9904C8.14695 17.7284 8.28959 17.4919 8.51163 17.3521C9.44688 16.7609 10.0713 15.7248 10.0713 14.5382C10.0713 12.5655 8.35956 10.9919 6.33834 11.2176C4.86212 11.3829 3.64562 12.5413 3.41955 14.0074C3.20154 15.4103 3.86497 16.6722 4.93479 17.3508C5.15818 17.4932 5.30216 17.7311 5.30216 17.9958V18.2727C5.30216 18.6234 5.03303 18.9217 4.6818 18.9446C2.53274 19.0857 1 20.0129 1 22.4761H7.80245C7.80245 21.4696 7.99623 20.1029 8.83594 18.9526Z" fill="#0000FE"/>
<path d="M23.8296 17.3535C24.0517 17.4932 24.1943 17.7297 24.1943 17.9918V18.274C24.1943 18.6247 23.9251 18.9231 23.5739 18.9459C23.5497 18.9472 23.5295 18.9526 23.5053 18.954C24.3463 20.1043 24.5388 21.4709 24.5388 22.4774H31.3412C31.3412 20.0142 29.8085 19.087 27.6594 18.9459C27.3082 18.9231 27.0391 18.6247 27.0391 18.274V17.9972C27.0391 17.7324 27.1831 17.4946 27.4078 17.3521C28.4776 16.6735 29.1397 15.413 28.923 14.0087C28.6956 12.5426 27.4805 11.3843 26.0042 11.219C23.983 10.9932 22.2713 12.5668 22.2713 14.5395C22.2713 15.7275 22.8957 16.7622 23.831 17.3535H23.8296Z" fill="#0000FE"/>
<path d="M17.8696 17.4543V17.1237C17.8696 16.8065 18.0418 16.523 18.3096 16.3523C19.588 15.542 20.3793 14.0356 20.1195 12.3585C19.8477 10.6075 18.3957 9.22208 16.6315 9.02588C14.216 8.75577 12.1706 10.6358 12.1706 12.9928C12.1706 14.4119 12.9161 15.6495 14.0343 16.355C14.2994 16.523 14.4703 16.8038 14.4703 17.117V17.4529C14.4703 17.8722 14.1487 18.2283 13.7289 18.2552C11.1613 18.4231 9.3298 19.5318 9.3298 22.4747H23.0087C23.0087 19.5318 21.1773 18.4245 18.6097 18.2552C18.1898 18.2283 17.8682 17.8722 17.8682 17.4529L17.8696 17.4543Z" fill="#0000FE"/>
</svg>
