<svg width="32" height="32" viewBox="0 0 32 32" fill="none" xmlns="http://www.w3.org/2000/svg">
<path d="M15.8208 1C7.63587 1 1 7.62661 1 15.8021C1 23.9775 7.63587 30.6041 15.8208 30.6041C24.0057 30.6041 30.6435 23.9775 30.6435 15.8021C30.6435 7.62661 24.0077 1 15.8208 1ZM18.247 13.4411L16.8335 21.8312C16.7483 22.3397 17.0988 22.7748 17.55 22.8599C17.8481 22.9159 18.0844 23.148 18.1444 23.4477L18.158 23.5115C18.2161 23.7977 18.0882 24.0935 17.8346 24.2347C16.1016 25.1938 12.8582 25.741 12.8679 22.2798C12.8679 21.9588 12.9066 21.6378 12.9628 21.3226L14.0645 14.901C14.0994 14.7018 13.9483 14.5181 13.747 14.5142H13.5669C13.1022 14.5065 12.7381 14.1082 12.7711 13.6422C12.8001 13.2168 13.1525 12.8861 13.5785 12.8861H17.7823C18.0767 12.8861 18.2993 13.151 18.249 13.4411H18.247ZM16.5295 10.8906C15.2341 10.8906 14.1846 9.83676 14.1846 8.53542C14.1846 7.23408 15.2341 6.18024 16.5295 6.18024C17.8249 6.18024 18.8744 7.23408 18.8744 8.53542C18.8744 9.83676 17.8249 10.8906 16.5295 10.8906Z" fill="#0000FE"/>
</svg>
