<svg width="32" height="32" viewBox="0 0 32 32" fill="none" xmlns="http://www.w3.org/2000/svg">
<path d="M23.3443 20.213C23.0016 19.8707 22.4807 19.8166 22.0819 20.0467L20.465 18.4321C23.5051 14.4159 23.1933 8.65947 19.5298 4.99908C15.5254 1.00031 9.00764 1.00031 5.00327 4.99908C0.998909 8.99786 0.998909 15.5065 5.00327 19.5053C7.00546 21.5047 9.63695 22.5044 12.2665 22.5044C14.4488 22.5044 16.631 21.816 18.4551 20.4392L20.0719 22.0538C19.8415 22.4541 19.8957 22.9742 20.2385 23.3146L25.5208 28.5895C26.3786 29.4461 27.7708 29.4461 28.6286 28.5895C29.4864 27.7329 29.4864 26.3427 28.6286 25.486L23.3463 20.2111L23.3443 20.213ZM6.63755 17.8733C3.53359 14.7737 3.53359 9.73265 6.63755 6.63301C8.18857 5.08416 10.2275 4.30877 12.2646 4.30877C14.3016 4.30877 16.3406 5.08416 17.8916 6.63301C20.9956 9.73265 20.9956 14.7737 17.8916 17.8733C16.3406 19.4221 14.3016 20.1975 12.2646 20.1975C10.2275 20.1975 8.18857 19.4221 6.63755 17.8733Z" fill="#0000FE"/>
</svg>
