<svg width="32" height="32" viewBox="0 0 32 32" fill="none" xmlns="http://www.w3.org/2000/svg">
<path d="M30.1735 19.2331C28.8704 18.752 27.9418 17.4995 27.9456 16.03C27.9493 14.5585 28.8835 13.3136 30.1903 12.8381C30.8025 12.6153 31.1395 11.9563 30.9448 11.3348C30.6696 10.4549 30.3176 9.60871 29.9001 8.80184C29.6006 8.22711 28.9004 7.99685 28.3106 8.2683C27.0488 8.84864 25.508 8.61838 24.4726 7.5775C23.4354 6.53475 23.2164 4.99402 23.8024 3.73598C24.0757 3.14815 23.851 2.44612 23.2763 2.14284C22.4731 1.71975 21.6287 1.36218 20.7488 1.08324C20.1291 0.884801 19.4664 1.21803 19.2398 1.82833C18.7587 3.1313 17.5062 4.05985 16.0346 4.05611C14.5631 4.05237 13.3181 3.11633 12.8425 1.80961C12.6197 1.19744 11.9589 0.860465 11.3373 1.05516C10.4536 1.33036 9.60364 1.68418 8.79485 2.1054C8.22008 2.40493 7.98978 3.10696 8.26125 3.6948C8.84163 4.95658 8.61324 6.4973 7.5723 7.53444C6.53136 8.57157 4.98866 8.79248 3.73054 8.20652C3.14267 7.93319 2.4406 8.15784 2.1373 8.73257C1.71418 9.53569 1.35848 10.3819 1.07765 11.2599C0.881072 11.8795 1.21432 12.5423 1.82466 12.7688C3.12958 13.2499 4.05817 14.5005 4.05443 15.9719C4.05069 17.4434 3.11646 18.6902 1.80967 19.1638C1.19746 19.3866 0.860456 20.0474 1.05516 20.669C1.33038 21.5489 1.68237 22.395 2.10174 23.2019C2.40129 23.7766 3.10336 24.0069 3.69123 23.7354C4.9531 23.1551 6.49392 23.3835 7.53111 24.4244C8.56831 25.4671 8.78925 27.0078 8.20325 28.2678C7.92991 28.8556 8.15454 29.5576 8.7293 29.8609C9.53248 30.284 10.3768 30.6397 11.2568 30.9205C11.8765 31.1189 12.5392 30.7838 12.7658 30.1735C13.2469 28.8706 14.4994 27.942 15.9691 27.9458C17.4407 27.9495 18.6875 28.8837 19.1612 30.1904C19.384 30.8026 20.0449 31.1395 20.6664 30.9448C21.5464 30.6696 22.3926 30.3177 23.1995 29.8983C23.7743 29.5988 24.0046 28.8987 23.7331 28.3089C23.1527 27.0472 23.3811 25.5064 24.424 24.4712C25.4668 23.434 27.0076 23.2131 28.2657 23.801C28.8536 24.0743 29.5557 23.8496 29.859 23.2749C30.2821 22.4718 30.6378 21.6275 30.9186 20.7476C31.1152 20.1279 30.7838 19.4652 30.1716 19.2387L30.1735 19.2331ZM15.9822 22.9192C12.1592 22.908 9.06819 19.8003 9.07943 15.9775C9.09066 12.1547 12.1985 9.06393 16.0215 9.07516C19.8445 9.0864 22.9356 12.1941 22.9243 16.0168C22.9131 19.8396 19.8052 22.9305 15.9822 22.9192Z" fill="#0000FE"/>
</svg>
