<svg width="32" height="32" viewBox="0 0 32 32" fill="none" xmlns="http://www.w3.org/2000/svg">
<path d="M16.3832 2C8.45189 2 2 8.44291 2 16.3631C2 24.2833 8.45189 30.7262 16.3832 30.7262C24.3144 30.7262 30.7664 24.2833 30.7664 16.3631C30.7664 8.44291 24.3144 2 16.3832 2ZM17.1345 11.4439C18.8539 11.3956 20.5095 11.1964 22.0489 10.8445C22.4013 12.3121 22.6202 13.9229 22.6705 15.6129H17.1345V11.4439ZM17.1345 9.94535V3.60299C19.0011 4.07866 20.6431 6.29076 21.6481 9.402C20.2384 9.71911 18.7184 9.89894 17.1345 9.94535ZM15.6319 3.60299V9.94535C14.0479 9.89894 12.5279 9.71911 11.1183 9.402C12.1232 6.29076 13.7672 4.07866 15.6319 3.60299ZM15.6319 11.442V15.6109H10.0959C10.1462 13.9209 10.365 12.3102 10.7174 10.8426C12.2568 11.1945 13.9124 11.3956 15.6319 11.442ZM8.61261 15.6109H3.53939C3.68268 13.1533 4.5095 10.8793 5.84752 8.98046C6.85442 9.56829 8.00654 10.0556 9.27678 10.4442C8.88564 12.0588 8.66295 13.7991 8.61261 15.6109ZM8.61261 17.1095C8.66295 18.9213 8.88564 20.6616 9.27678 22.2762C8.00654 22.6629 6.85442 23.1502 5.84752 23.738C4.5095 21.8392 3.68074 19.5672 3.53939 17.1095H8.61261ZM10.0959 17.1095H15.6319V21.2784C13.9124 21.3268 12.2568 21.5259 10.7174 21.8779C10.365 20.4102 10.1462 18.7995 10.0959 17.1095ZM15.6319 22.777V29.1194C13.7652 28.6437 12.1232 26.4316 11.1183 23.3204C12.5279 23.0032 14.0479 22.8234 15.6319 22.777ZM17.1345 29.1194V22.777C18.7184 22.8234 20.2384 23.0032 21.6481 23.3204C20.6412 26.4297 18.9992 28.6437 17.1345 29.1194ZM17.1345 21.2784V17.1095H22.6705C22.6202 18.7995 22.4013 20.4102 22.0489 21.8779C20.5095 21.5259 18.8539 21.3248 17.1345 21.2784ZM24.1537 17.1095H29.227C29.0837 19.5672 28.2569 21.8411 26.9188 23.74C25.9119 23.1521 24.7598 22.6649 23.4896 22.2762C23.8807 20.6616 24.1034 18.9213 24.1537 17.1095ZM24.1537 15.6109C24.1034 13.7991 23.8807 12.0588 23.4896 10.4442C24.7598 10.0556 25.91 9.56829 26.9188 8.98046C28.2569 10.8793 29.0856 13.1513 29.227 15.6109H24.1537ZM25.9662 7.79514C25.1122 8.27468 24.1499 8.67688 23.0887 9.00367C22.7905 8.07358 22.4536 7.1841 22.0412 6.39131C21.6016 5.54437 21.1098 4.82699 20.5831 4.21403C22.6744 4.93721 24.5178 6.18248 25.9662 7.79514ZM12.1852 4.21403C11.6585 4.82506 11.1667 5.54437 10.7271 6.39131C10.3147 7.18604 9.97773 8.07358 9.67953 9.00367C8.61842 8.67688 7.65606 8.27275 6.80213 7.79514C8.25051 6.18248 10.0939 4.93721 12.1852 4.21403ZM6.80213 24.9272C7.65606 24.4477 8.61842 24.0455 9.67953 23.7187C9.97773 24.6488 10.3147 25.5383 10.7271 26.333C11.1667 27.1799 11.6585 27.8973 12.1852 28.5103C10.0939 27.7871 8.24858 26.5418 6.80213 24.9292V24.9272ZM20.5831 28.5083C21.1098 27.8973 21.6016 27.178 22.0412 26.331C22.4536 25.5363 22.7905 24.6468 23.0887 23.7168C24.1499 24.0435 25.1122 24.4477 25.9662 24.9253C24.5178 26.5379 22.6744 27.7832 20.5831 28.5064V28.5083Z" fill="#0000FE"/>
</svg>
