<svg width="32" height="32" viewBox="0 0 32 32" fill="none" xmlns="http://www.w3.org/2000/svg">
<path d="M22.0204 15.2026C20.4222 16.5359 18.3668 17.3421 16.1264 17.3421C13.886 17.3421 11.8307 16.5377 10.2325 15.2026C6.4664 16.8765 3.8287 20.6409 3.8287 25.0158V30.1661C3.8287 30.4487 4.05728 30.677 4.34028 30.677H27.9108C28.1938 30.677 28.4223 30.4487 28.4223 30.1661V25.0158C28.4223 20.6391 25.7847 16.8747 22.0186 15.2008L22.0204 15.2026Z" fill="#0000FE"/>
<path d="M16.1283 1C12.1808 1 8.97166 4.20646 8.97166 8.1466C8.97166 12.0867 12.1826 15.2932 16.1283 15.2932C20.0739 15.2932 23.2848 12.0867 23.2848 8.1466C23.2848 4.20646 20.0739 1 16.1283 1Z" fill="#0000FE"/>
</svg>
