<svg width="32" height="32" viewBox="0 0 32 32" fill="none" xmlns="http://www.w3.org/2000/svg">
<path d="M29.2532 5H2.83759C1.82295 5 1 5.8218 1 6.83503V24.7812C1 25.7944 1.82295 26.6162 2.83759 26.6162H29.2532C30.2679 26.6162 31.0908 25.7944 31.0908 24.7812V6.83503C31.0908 5.8218 30.2679 5 29.2532 5ZM5.7092 23.7892C5.7092 24.2224 5.35678 24.5743 4.92304 24.5743H3.34492C2.91117 24.5743 2.55876 24.2224 2.55876 23.7892V22.7586C2.55876 22.3255 2.91117 21.9735 3.34492 21.9735H4.92304C5.35678 21.9735 5.7092 22.3255 5.7092 22.7586V23.7892ZM5.7092 18.812C5.7092 19.2452 5.35678 19.5971 4.92304 19.5971H3.34492C2.91117 19.5971 2.55876 19.2452 2.55876 18.812V17.7814C2.55876 17.3482 2.91117 16.9963 3.34492 16.9963H4.92304C5.35678 16.9963 5.7092 17.3482 5.7092 17.7814V18.812ZM5.7092 13.8348C5.7092 14.268 5.35678 14.6199 4.92304 14.6199H3.34492C2.91117 14.6199 2.55876 14.268 2.55876 13.8348V12.8042C2.55876 12.371 2.91117 12.0191 3.34492 12.0191H4.92304C5.35678 12.0191 5.7092 12.371 5.7092 12.8042V13.8348ZM5.7092 8.85762C5.7092 9.29076 5.35678 9.64268 4.92304 9.64268H3.34492C2.91117 9.64268 2.55876 9.29076 2.55876 8.85762V7.82699C2.55876 7.39385 2.91117 7.04193 3.34492 7.04193H4.92304C5.35678 7.04193 5.7092 7.39385 5.7092 7.82699V8.85762ZM24.8248 23.8066C24.8248 24.2301 24.4801 24.5743 24.0561 24.5743H8.03475C7.61069 24.5743 7.26602 24.2301 7.26602 23.8066V7.80766C7.26602 7.38419 7.61069 7.03999 8.03475 7.03999H24.0561C24.4801 7.03999 24.8248 7.38419 24.8248 7.80766V23.8066ZM29.534 23.7873C29.534 24.2204 29.1816 24.5724 28.7478 24.5724H27.1697C26.736 24.5724 26.3836 24.2204 26.3836 23.7873V22.7567C26.3836 22.3235 26.736 21.9716 27.1697 21.9716H28.7478C29.1816 21.9716 29.534 22.3235 29.534 22.7567V23.7873ZM29.534 18.8101C29.534 19.2432 29.1816 19.5951 28.7478 19.5951H27.1697C26.736 19.5951 26.3836 19.2432 26.3836 18.8101V17.7795C26.3836 17.3463 26.736 16.9944 27.1697 16.9944H28.7478C29.1816 16.9944 29.534 17.3463 29.534 17.7795V18.8101ZM29.534 13.8329C29.534 14.266 29.1816 14.6179 28.7478 14.6179H27.1697C26.736 14.6179 26.3836 14.266 26.3836 13.8329V12.8022C26.3836 12.3691 26.736 12.0172 27.1697 12.0172H28.7478C29.1816 12.0172 29.534 12.3691 29.534 12.8022V13.8329ZM29.534 8.85569C29.534 9.28882 29.1816 9.64075 28.7478 9.64075H27.1697C26.736 9.64075 26.3836 9.28882 26.3836 8.85569V7.82505C26.3836 7.39192 26.736 7.03999 27.1697 7.03999H28.7478C29.1816 7.03999 29.534 7.39192 29.534 7.82505V8.85569Z" fill="#0000FE"/>
</svg>
