<svg width="32" height="32" viewBox="0 0 32 32" fill="none" xmlns="http://www.w3.org/2000/svg">
<g id="Icon - Voice">
<g id="Vector">
<path d="M26.0411 13.1012C25.3281 13.1012 24.7494 13.6714 24.7494 14.3767C24.7494 19.1408 20.8242 23.0172 16 23.0172C11.1745 23.0172 7.24926 19.1408 7.24926 14.3767C7.24926 13.6714 6.67061 13.1012 5.95764 13.1012C5.24466 13.1012 4.66602 13.6714 4.66602 14.3767C4.66602 20.1166 9.06528 24.8552 14.7084 25.4917V28.0581C14.7084 28.7622 15.2857 29.3336 16 29.3336C16.713 29.3336 17.2916 28.7622 17.2916 28.0581V25.4917C22.9334 24.8552 27.3327 20.1166 27.3327 14.3767C27.3327 13.6714 26.754 13.1012 26.0411 13.1012Z" fill="#0000FE"/>
<path d="M15.7657 20.2894H16.2333C19.4365 20.2894 22.0353 17.7243 22.0353 14.561V8.39632C22.0353 5.23045 19.4365 2.66663 16.2333 2.66663H15.7657C12.5625 2.66663 9.96376 5.23045 9.96376 8.39632V14.561C9.96376 17.7243 12.5625 20.2894 15.7657 20.2894Z" fill="#0000FE"/>
</g>
</g>
</svg>
