<svg width="32" height="32" viewBox="0 0 32 32" fill="none" xmlns="http://www.w3.org/2000/svg">
<g id="Frame 427320542">
<rect width="32" height="32" rx="16" fill="#0000FE"/>
<g id="Group">
<path id="Vector" d="M16.0018 20.8662C18.6877 20.8662 20.865 18.6884 20.865 16.0019C20.865 13.3154 18.6877 11.1376 16.0018 11.1376C13.316 11.1376 11.1387 13.3154 11.1387 16.0019C11.1387 18.6884 13.316 20.8662 16.0018 20.8662Z" stroke="white" stroke-width="2" stroke-linecap="round" stroke-linejoin="round"/>
<g id="Group_2">
<path id="Vector_2" d="M16.75 8C16.75 7.58579 16.4142 7.25 16 7.25C15.5858 7.25 15.25 7.58579 15.25 8H16.75ZM15.25 8V11.6084H16.75V8H15.25Z" fill="white"/>
<path id="Vector_3" d="M15.25 24C15.25 24.4142 15.5858 24.75 16 24.75C16.4142 24.75 16.75 24.4142 16.75 24H15.25ZM15.25 20.3916V24H16.75V20.3916H15.25Z" fill="white"/>
</g>
<g id="Group_3">
<path id="Vector_4" d="M8 15.2518C7.58579 15.2518 7.25 15.5876 7.25 16.0018C7.25 16.416 7.58579 16.7518 8 16.7518V15.2518ZM8 16.7518H11.6076V15.2518H8V16.7518Z" fill="white"/>
<path id="Vector_5" d="M24.0002 16.7518C24.4144 16.7518 24.7502 16.416 24.7502 16.0018C24.7502 15.5876 24.4144 15.2518 24.0002 15.2518V16.7518ZM20.3926 16.7518H24.0002V15.2518H20.3926V16.7518Z" fill="white"/>
</g>
</g>
</g>
</svg>
