<svg width="32" height="32" viewBox="0 0 32 32" fill="none" xmlns="http://www.w3.org/2000/svg">
<g id="Icon_Edit">
<path id="Vector 2 " fill-rule="evenodd" clip-rule="evenodd" d="M16.9492 21.8984C16.9492 21.4842 17.285 21.1484 17.6992 21.1484H24.0762C24.4904 21.1484 24.8262 21.4842 24.8262 21.8984C24.8262 22.3127 24.4904 22.6484 24.0762 22.6484H17.6992C17.285 22.6484 16.9492 22.3127 16.9492 21.8984Z" fill="#0000FE"/>
<g id="Vector 1">
<path d="M19.5399 6.60037C18.5182 5.79967 17.2237 5.74643 16.4227 6.76659L15.3169 8.17668L20.6139 12.1494L21.6332 10.8494C22.4343 9.82706 22.0723 8.58527 21.0507 7.78457L19.5399 6.60037Z" fill="#0000FE"/>
<path d="M19.688 13.33L14.3911 9.35732L7.41346 18.2556C7.11239 18.6413 7.00153 19.141 7.11239 19.6158L7.8993 23L11.3741 22.9555C11.8632 22.95 12.3229 22.723 12.624 22.3384L19.688 13.33Z" fill="#0000FE"/>
</g>
</g>
</svg>
