<svg width="32" height="32" viewBox="0 0 32 32" fill="none" xmlns="http://www.w3.org/2000/svg">
<g id="Icon - Sound">
<g id="Vector">
<path fill-rule="evenodd" clip-rule="evenodd" d="M3.33646 16.0001C3.33274 17.6397 3.25958 19.876 4.2739 20.7119C5.22003 21.4916 5.88591 21.2907 7.61325 21.4174C9.34182 21.5454 12.9899 26.6266 15.8023 25.0194C17.2531 23.8785 17.361 21.4868 17.361 16.0001C17.361 10.5135 17.2531 8.12176 15.8023 6.9809C12.9899 5.37246 9.34182 10.4549 7.61325 10.5829C5.88591 10.7096 5.22003 10.5087 4.2739 11.2884C3.25958 12.1243 3.33274 14.3606 3.33646 16.0001Z" fill="#0000FE"/>
<path fill-rule="evenodd" clip-rule="evenodd" d="M25.5428 7.05045C25.9963 6.73536 26.6195 6.84764 26.9346 7.30123C30.5723 12.5381 30.5848 19.4498 26.9342 24.6982C26.6188 25.1516 25.9956 25.2635 25.5422 24.9481C25.0889 24.6327 24.977 24.0095 25.2923 23.5562C28.4642 18.996 28.4544 12.9948 25.292 8.44225C24.9769 7.98866 25.0892 7.36553 25.5428 7.05045Z" fill="#0000FE"/>
<path fill-rule="evenodd" clip-rule="evenodd" d="M22.279 10.218C22.7583 9.94357 23.3693 10.1097 23.6437 10.589C25.568 13.9505 25.5688 18.0591 23.643 21.4126C23.368 21.8916 22.7568 22.0569 22.2779 21.7818C21.7989 21.5068 21.6336 20.8956 21.9087 20.4167C23.4797 17.6808 23.4805 14.3296 21.908 11.5826C21.6336 11.1033 21.7997 10.4923 22.279 10.218Z" fill="#0000FE"/>
</g>
</g>
</svg>
