<svg width="330" height="384" viewBox="0 0 330 384" fill="none" xmlns="http://www.w3.org/2000/svg">
<path d="M252.232 151.322V79.6403H234.471V143.987L221.919 156.524H95.5107V130.15H193.95L208.012 116.105V73.7622H198.637V61.954H252.232V0H100.719L77.75 22.9401V94.6216H95.5107V30.2748L108.063 17.7383H234.419V44.1117H121.917V112.36H77.75V174.21H229.263L252.232 151.27V151.322ZM139.73 61.85H180.876V73.6582H139.73V61.85ZM139.73 91.3965H190.304V108.667L186.606 112.36H139.73V91.3965Z" fill="white"/>
<path d="M97.4493 289.485V241.056H84.3241V203.238H0V307.535H79.324L97.3972 289.485H97.4493ZM18.8544 222.069H65.4176V240.952H18.8544V222.069ZM78.5427 281.682L71.5114 288.705H18.8544V259.886H78.5427V281.682Z" fill="white"/>
<path d="M118.301 250.418V307.586H137.155V259.833H183.041L193.979 307.586H212.833L201.896 259.833H212.885V203.289H118.301V250.418ZM137.155 222.12H194.031V241.002H137.155V222.12Z" fill="white"/>
<path d="M286.929 241.004V259.834H311.148V288.705H253.804V222.069H329.534V203.238H234.949V307.535H330.003V241.004H286.929Z" fill="white"/>
<path d="M73.3452 339.629H62.3555V341.241H66.8868V354.454H68.8139V341.241H73.3452V339.629Z" fill="white"/>
<path d="M78.086 343.581C74.961 343.581 73.0859 346.13 73.0859 349.355C73.0859 352.58 75.0651 354.713 78.3464 354.713C80.0652 354.713 81.2111 354.349 81.8881 354.037L81.5236 352.684C80.7944 352.996 79.961 353.204 78.5548 353.204C76.6277 353.204 74.961 352.112 74.9089 349.511H82.409C82.409 349.511 82.4611 348.991 82.4611 348.575C82.4611 346.598 81.5756 343.581 78.086 343.581ZM74.961 348.107C75.1172 346.754 75.9506 344.986 77.9298 344.986C80.1173 344.986 80.6381 346.91 80.586 348.107H74.9089H74.961Z" fill="white"/>
<path d="M90.2722 345.142C91.366 345.142 92.0431 345.402 92.5639 345.662L92.9806 344.153C92.4598 343.893 91.4181 343.581 90.2722 343.581C86.7826 343.581 84.543 345.974 84.543 349.251C84.543 352.528 86.6263 354.713 89.8555 354.713C91.3139 354.713 92.4077 354.349 92.9285 354.089L92.616 352.632C92.0431 352.892 91.3139 353.152 90.2201 353.152C88.0847 353.152 86.5222 351.644 86.5222 349.147C86.5222 346.91 87.8764 345.09 90.2722 345.09V345.142Z" fill="white"/>
<path d="M97.5508 348.055C97.5508 347.691 97.5508 347.378 97.7071 347.118C98.0716 346.078 99.0612 345.194 100.311 345.194C102.134 345.194 102.759 346.65 102.759 348.367V354.505H104.686V348.159C104.686 344.465 102.395 343.581 100.988 343.581C100.259 343.581 99.5821 343.789 99.0092 344.101C98.4362 344.413 97.9154 344.934 97.6029 345.454V338.795H95.6758V354.453H97.6029V348.003L97.5508 348.055Z" fill="white"/>
<path d="M110.199 354.454V348.055C110.199 347.743 110.251 347.379 110.355 347.171C110.72 346.079 111.71 345.194 112.96 345.194C114.783 345.194 115.408 346.651 115.408 348.367V354.506H117.335V348.159C117.335 344.518 115.043 343.634 113.585 343.634C111.814 343.634 110.564 344.622 110.043 345.611H109.991L109.887 343.842H108.168C108.22 344.726 108.272 345.611 108.272 346.703V354.506H110.199V354.454Z" fill="white"/>
<path d="M130.625 349.043C130.625 345.766 128.542 343.581 125.469 343.581C122.396 343.581 120.156 345.662 120.156 349.251C120.156 352.84 122.396 354.765 125.313 354.765C127.865 354.765 130.625 353.048 130.625 349.095V349.043ZM122.188 349.147C122.188 347.118 123.177 344.986 125.469 344.986C127.761 344.986 128.698 347.274 128.698 349.095C128.698 351.488 127.292 353.256 125.417 353.256C123.542 353.256 122.188 351.488 122.188 349.147Z" fill="white"/>
<path d="M135.423 338.846H133.496V354.504H135.423V338.846Z" fill="white"/>
<path d="M143.484 354.713C146.037 354.713 148.797 352.996 148.797 349.043C148.797 345.766 146.714 343.581 143.641 343.581C140.568 343.581 138.328 345.662 138.328 349.251C138.328 352.84 140.568 354.765 143.484 354.765V354.713ZM143.589 345.038C145.88 345.038 146.818 347.326 146.818 349.147C146.818 351.54 145.412 353.308 143.537 353.308C141.662 353.308 140.307 351.54 140.307 349.199C140.307 347.17 141.297 345.038 143.589 345.038Z" fill="white"/>
<path d="M160.837 352.945V346.755C160.837 345.454 160.837 344.57 160.942 343.842H159.223L159.119 345.454C158.65 344.57 157.66 343.634 155.785 343.634C153.337 343.634 150.941 345.663 150.941 349.304C150.941 352.269 152.816 354.506 155.473 354.506C157.139 354.506 158.285 353.725 158.858 352.737V353.933C158.858 356.638 157.4 357.679 155.421 357.679C154.066 357.679 152.973 357.263 152.296 356.846L151.827 358.355C152.712 358.927 154.119 359.239 155.369 359.239C156.619 359.239 158.233 358.927 159.275 357.939C160.317 357.003 160.785 355.546 160.785 353.049L160.837 352.945ZM158.91 349.928C158.91 350.24 158.91 350.656 158.754 350.968C158.337 352.217 157.244 352.945 156.046 352.945C153.962 352.945 152.869 351.176 152.869 349.096C152.869 346.599 154.223 345.038 156.046 345.038C157.452 345.038 158.389 345.975 158.754 347.119C158.858 347.379 158.858 347.691 158.858 348.003V349.928H158.91Z" fill="white"/>
<path d="M171.064 343.841L168.928 350.083C168.668 350.864 168.46 351.696 168.251 352.32H168.199C168.043 351.696 167.783 350.864 167.522 350.135L165.178 343.841H163.043L167.001 353.673C167.001 353.673 167.158 354.037 167.158 354.193C167.158 354.297 167.106 354.453 167.001 354.661C166.533 355.649 165.908 356.378 165.387 356.794C164.814 357.262 164.189 357.574 163.668 357.73L164.137 359.343C164.605 359.239 165.543 358.926 166.533 358.094C167.835 356.95 168.824 355.077 170.178 351.384L173.095 343.789H171.012L171.064 343.841Z" fill="white"/>
<path d="M188.449 353.051C189.022 353.675 189.387 354.091 189.856 354.508H192.147C191.262 353.571 190.481 352.739 189.699 351.855C190.793 350.554 191.47 348.681 191.835 346.393H190.064C189.751 348.265 189.335 349.67 188.658 350.71C187.72 349.67 186.314 348.057 185.012 346.601C187.356 345.352 188.293 344.104 188.293 342.543C188.293 340.619 186.835 339.37 185.012 339.37C182.564 339.37 181.21 341.243 181.21 343.063C181.21 344.104 181.678 345.196 182.46 346.185C180.793 347.173 179.543 348.577 179.543 350.606C179.543 352.843 181.21 354.768 184.126 354.768C185.741 354.768 187.199 354.247 188.449 353.103V353.051ZM184.856 340.723C186.053 340.723 186.574 341.711 186.574 342.647C186.574 343.896 185.637 344.676 184.126 345.56C183.501 344.78 182.981 343.948 182.981 342.907C182.981 341.763 183.606 340.775 184.856 340.775V340.723ZM181.418 350.294C181.418 348.733 182.512 347.797 183.345 347.277C184.96 349.15 186.626 350.97 187.512 351.959C186.783 352.739 185.741 353.311 184.439 353.311C182.668 353.311 181.418 352.011 181.418 350.294Z" fill="white"/>
<path d="M208.505 345.819H201.318V339.629H199.391V354.454H201.318V347.484H208.505V354.454H210.485V339.629H208.505V345.819Z" fill="white"/>
<path d="M221.314 352.736L221.418 354.453H223.137C223.137 353.621 223.033 352.632 223.033 351.54V343.789H221.106V350.343C221.106 350.708 221.053 351.072 220.949 351.332C220.585 352.216 219.699 353.1 218.397 353.1C216.626 353.1 216.001 351.696 216.001 349.667V343.789H214.074V350.031C214.074 353.777 216.106 354.713 217.772 354.713C219.699 354.713 220.793 353.569 221.314 352.736Z" fill="white"/>
<path d="M238.443 343.583C237.453 343.583 236.724 343.843 236.099 344.312C235.682 344.624 235.214 345.092 234.901 345.716C234.432 344.468 233.339 343.583 231.88 343.583C230.109 343.583 229.12 344.52 228.495 345.56H228.443L228.339 343.843H226.672C226.724 344.728 226.776 345.612 226.776 346.704V354.507H228.651V348.057C228.651 347.745 228.651 347.381 228.807 347.121C229.12 346.132 230.005 345.196 231.203 345.196C232.662 345.196 233.443 346.392 233.443 348.109V354.507H235.318V347.901C235.318 347.537 235.37 347.225 235.474 346.912C235.839 345.976 236.672 345.144 237.766 345.144C239.328 345.144 240.11 346.34 240.11 348.421V354.455H241.985V348.161C241.985 344.468 239.901 343.531 238.443 343.531V343.583Z" fill="white"/>
<path d="M253.089 347.951C253.089 345.818 252.307 343.581 249.026 343.581C247.672 343.581 246.37 343.945 245.484 344.517L245.901 345.818C246.63 345.298 247.672 345.038 248.662 345.038C250.849 345.038 251.109 346.65 251.109 347.482V347.69C246.995 347.69 244.703 349.095 244.703 351.644C244.703 353.152 245.797 354.713 247.984 354.713C249.495 354.713 250.641 353.933 251.266 353.1H251.318L251.474 354.453H253.245C253.141 353.725 253.089 352.84 253.089 351.904V347.899V347.951ZM251.214 350.916C251.214 350.916 251.214 351.332 251.109 351.54C250.797 352.424 249.912 353.308 248.505 353.308C247.516 353.308 246.682 352.736 246.682 351.436C246.682 349.355 249.078 348.991 251.162 349.043V350.916H251.214Z" fill="white"/>
<path d="M261.932 343.581C260.162 343.581 258.911 344.569 258.391 345.558H258.339L258.234 343.789H256.516C256.568 344.673 256.62 345.558 256.62 346.65V354.453H258.547V348.055C258.547 347.743 258.599 347.378 258.703 347.17C259.068 346.078 260.057 345.194 261.307 345.194C263.13 345.194 263.755 346.65 263.755 348.367V354.505H265.682V348.159C265.682 344.517 263.391 343.633 261.932 343.633V343.581Z" fill="white"/>
<path d="M91.6225 370.217C92.8725 370.217 93.9142 370.477 94.5913 370.841L95.0601 369.28C94.5392 369.02 93.3413 368.604 91.5183 368.604C86.8829 368.604 83.7578 371.725 83.7578 376.407C83.7578 381.088 86.8829 383.949 91.1017 383.949C92.9246 383.949 94.3309 383.585 95.008 383.221L94.6434 381.713C93.8621 382.077 92.6642 382.337 91.4663 382.337C87.8725 382.337 85.7891 379.996 85.7891 376.355C85.7891 372.453 88.0808 370.217 91.5704 370.217H91.6225Z" fill="white"/>
<path d="M102.09 372.816C99.1211 372.816 96.7773 374.897 96.7773 378.486C96.7773 382.075 99.017 384 101.934 384C104.486 384 107.246 382.283 107.246 378.33C107.246 375.053 105.163 372.868 102.09 372.868V372.816ZM101.986 382.491C100.111 382.491 98.7565 380.723 98.7565 378.382C98.7565 376.353 99.7461 374.22 102.038 374.22C104.33 374.22 105.267 376.509 105.267 378.33C105.267 380.723 103.861 382.491 101.986 382.491Z" fill="white"/>
<path d="M115.417 372.816C113.646 372.816 112.396 373.804 111.875 374.793H111.823L111.719 373.024H110C110 373.908 110.104 374.793 110.104 375.885V383.688H112.031V377.29C112.031 376.977 112.083 376.613 112.188 376.405C112.552 375.313 113.542 374.429 114.792 374.429C116.615 374.429 117.24 375.885 117.24 377.602V383.74H119.167V377.394C119.167 373.752 116.875 372.868 115.417 372.868V372.816Z" fill="white"/>
<path d="M128.124 372.816C126.353 372.816 125.103 373.804 124.582 374.793H124.53L124.426 373.024H122.707C122.759 373.908 122.811 374.793 122.811 375.885V383.688H124.738V377.29C124.738 376.977 124.79 376.613 124.895 376.405C125.259 375.313 126.249 374.429 127.499 374.429C129.322 374.429 129.947 375.885 129.947 377.602V383.74H131.874V377.394C131.874 373.752 129.582 372.868 128.124 372.868V372.816Z" fill="white"/>
<path d="M139.691 372.816C136.566 372.816 134.691 375.365 134.691 378.59C134.691 381.815 136.671 383.948 139.952 383.948C141.671 383.948 142.817 383.584 143.494 383.272L143.129 381.919C142.4 382.231 141.566 382.439 140.16 382.439C138.233 382.439 136.566 381.347 136.514 378.746H144.014C144.014 378.746 144.067 378.226 144.067 377.81C144.067 375.833 143.181 372.816 139.691 372.816ZM136.566 377.342C136.723 375.989 137.556 374.22 139.535 374.22C141.723 374.22 142.244 376.145 142.192 377.342H136.514H136.566Z" fill="white"/>
<path d="M151.921 374.376C153.014 374.376 153.692 374.637 154.212 374.897L154.629 373.388C154.108 373.128 153.067 372.816 151.921 372.816C148.431 372.816 146.191 375.209 146.191 378.486C146.191 381.763 148.275 383.948 151.504 383.948C152.962 383.948 154.056 383.584 154.577 383.324L154.264 381.867C153.692 382.127 152.962 382.387 151.869 382.387C149.733 382.387 148.171 380.879 148.171 378.382C148.171 376.145 149.525 374.324 151.921 374.324V374.376Z" fill="white"/>
<path d="M159.91 369.956L157.983 370.476V373.025H156.316V374.481H157.983V380.307C157.983 381.556 158.191 382.492 158.712 383.116C159.181 383.636 159.91 383.949 160.796 383.949C161.577 383.949 162.15 383.844 162.514 383.688L162.41 382.232C162.41 382.232 161.785 382.388 161.264 382.388C160.171 382.388 159.806 381.66 159.806 380.307V374.533H162.619V373.077H159.806V370.008L159.91 369.956Z" fill="white"/>
<path d="M176.783 375.781C178.345 375.156 179.283 373.908 179.283 372.451C179.283 371.307 178.814 370.423 178.033 369.798C177.095 369.07 175.897 368.706 173.97 368.706C172.616 368.706 171.314 368.862 170.48 369.018V383.635C171.105 383.687 172.147 383.791 173.449 383.791C175.897 383.791 177.564 383.375 178.606 382.387C179.387 381.659 179.856 380.67 179.856 379.422C179.856 377.185 178.189 376.041 176.783 375.677V375.781ZM172.355 370.371C172.668 370.319 173.189 370.215 174.074 370.215C176.001 370.215 177.303 370.891 177.303 372.607C177.303 374.064 176.106 375.104 174.074 375.104H172.303V370.319L172.355 370.371ZM173.97 382.387C173.293 382.387 172.72 382.387 172.355 382.283V376.613H173.97C176.053 376.613 177.824 377.445 177.824 379.474C177.824 381.659 176.001 382.387 173.97 382.387Z" fill="white"/>
<path d="M189.225 376.611C190.788 376.039 192.038 374.738 192.038 372.762C192.038 371.617 191.621 370.577 190.892 369.953C189.955 369.12 188.6 368.756 186.569 368.756C185.267 368.756 183.861 368.86 182.871 369.068V383.738H184.798V377.287H186.621C188.34 377.339 189.173 378.12 189.59 380.148C190.007 382.021 190.319 383.27 190.58 383.686H192.559C192.246 383.113 191.882 381.709 191.413 379.628C191.048 378.068 190.371 377.027 189.225 376.611ZM186.725 375.831H184.746V370.421C185.059 370.317 185.736 370.265 186.621 370.265C188.652 370.265 190.059 371.097 190.059 373.022C190.059 374.738 188.757 375.831 186.673 375.831H186.725Z" fill="white"/>
<path d="M201.678 377.445H204.699V381.867C204.231 382.075 203.397 382.283 202.147 382.283C198.658 382.283 196.418 380.046 196.418 376.301C196.418 372.555 198.814 370.319 202.408 370.319C203.918 370.319 204.908 370.579 205.689 370.943L206.158 369.382C205.533 369.07 204.179 368.706 202.408 368.706C197.408 368.706 194.387 371.931 194.387 376.405C194.387 378.746 195.168 380.67 196.47 381.919C197.928 383.323 199.803 383.895 202.043 383.895C204.074 383.895 205.741 383.427 206.626 383.063V375.937H201.731V377.497L201.678 377.445Z" fill="white"/>
<path d="M216.978 368.864H215.051V383.742H216.978V368.864Z" fill="white"/>
<path d="M226.214 372.816C224.443 372.816 223.193 373.804 222.672 374.793H222.62L222.516 373.024H220.797C220.849 373.908 220.901 374.793 220.901 375.885V383.688H222.828V377.29C222.828 376.977 222.88 376.613 222.984 376.405C223.349 375.313 224.339 374.429 225.589 374.429C227.412 374.429 228.037 375.885 228.037 377.602V383.74H229.964V377.394C229.964 373.752 227.672 372.868 226.214 372.868V372.816Z" fill="white"/>
<path d="M238.538 374.376C239.632 374.376 240.309 374.637 240.83 374.897L241.246 373.388C240.725 373.128 239.684 372.816 238.538 372.816C235.048 372.816 232.809 375.209 232.809 378.486C232.809 381.763 234.892 383.948 238.121 383.948C239.58 383.948 240.673 383.584 241.194 383.324L240.882 381.867C240.309 382.127 239.58 382.387 238.486 382.387C236.35 382.387 234.788 380.879 234.788 378.382C234.788 376.145 236.142 374.324 238.538 374.324V374.376Z" fill="white"/>
<path d="M244.536 381.192C243.755 381.192 243.234 381.765 243.234 382.597C243.234 383.377 243.755 384.001 244.536 384.001C245.318 384.001 245.839 383.377 245.839 382.597C245.839 381.765 245.318 381.192 244.536 381.192Z" fill="white"/>
</svg>
