<svg width="32" height="32" viewBox="0 0 32 32" fill="none" xmlns="http://www.w3.org/2000/svg">
<g id="Icon - Video">
<g id="Vector">
<path d="M27.6088 6.27614C28.1295 5.75544 28.1295 4.91122 27.6088 4.39052C27.0881 3.86983 26.2439 3.86983 25.7232 4.39052L20.7237 9.39001C19.8371 7.70931 18.0833 6.66667 15.8728 6.66667H8.15007C4.9207 6.66667 2.66602 8.89205 2.66602 12.0812V21.2521C2.66602 23.0567 3.38855 24.5533 4.6014 25.5123L3.05654 27.0572C2.53584 27.5779 2.53584 28.4221 3.05654 28.9428C3.57724 29.4635 4.42146 29.4635 4.94216 28.9428L27.6088 6.27614Z" fill="#ffffff"/>
<path d="M9.88497 26.6667H15.8728C19.1022 26.6667 21.3569 24.4399 21.3569 21.2521V15.1948L9.88497 26.6667Z" fill="#ffffff"/>
<path d="M23.4499 13.1018V20.5551C23.4499 21.3836 23.9032 22.1267 24.6339 22.4976L26.6086 23.4939C26.8766 23.632 27.1632 23.6983 27.4499 23.6983C27.7939 23.6983 28.1353 23.6008 28.4406 23.41C28.9993 23.0594 29.3326 22.4516 29.3326 21.7856V11.5494C29.3326 10.8834 28.9993 10.2756 28.4406 9.92367C27.94 9.6083 27.3366 9.55053 26.7955 9.75617L23.4499 13.1018Z" fill="#ffffff"/>
</g>
</g>
</svg>
