<svg width="32" height="32" viewBox="0 0 32 32" fill="none" xmlns="http://www.w3.org/2000/svg">
<path d="M3.33203 28.0512V5.74364C3.33203 5.07013 3.56536 4.50004 4.03203 4.03337C4.4987 3.56671 5.06879 3.33337 5.7423 3.33337H26.255C26.9285 3.33337 27.4986 3.56671 27.9653 4.03337C28.432 4.50004 28.6653 5.07013 28.6653 5.74364V20.923C28.6653 21.5966 28.432 22.1666 27.9653 22.6333C27.4986 23.1 26.9285 23.3333 26.255 23.3333H8.04997L3.33203 28.0512ZM8.33203 18.3333H18.332V16.3334H8.33203V18.3333ZM8.33203 14.3333H23.6653V12.3334H8.33203V14.3333ZM8.33203 10.3333H23.6653V8.33337H8.33203V10.3333Z" fill="#0000FE"/>
</svg>
