<svg width="32" height="32" viewBox="0 0 32 32" fill="none" xmlns="http://www.w3.org/2000/svg">
<rect width="32" height="32" rx="10" fill="#1363BA"/>
<path d="M8.66406 19.0801V20H4.39844V19.0801H8.66406ZM4.62109 11.4688V20H3.49023V11.4688H4.62109ZM9.50781 16.9004V16.7656C9.50781 16.3086 9.57422 15.8848 9.70703 15.4941C9.83984 15.0996 10.0312 14.7578 10.2812 14.4688C10.5312 14.1758 10.834 13.9492 11.1895 13.7891C11.5449 13.625 11.9434 13.543 12.3848 13.543C12.8301 13.543 13.2305 13.625 13.5859 13.7891C13.9453 13.9492 14.25 14.1758 14.5 14.4688C14.7539 14.7578 14.9473 15.0996 15.0801 15.4941C15.2129 15.8848 15.2793 16.3086 15.2793 16.7656V16.9004C15.2793 17.3574 15.2129 17.7812 15.0801 18.1719C14.9473 18.5625 14.7539 18.9043 14.5 19.1973C14.25 19.4863 13.9473 19.7129 13.5918 19.877C13.2402 20.0371 12.8418 20.1172 12.3965 20.1172C11.9512 20.1172 11.5508 20.0371 11.1953 19.877C10.8398 19.7129 10.5352 19.4863 10.2812 19.1973C10.0312 18.9043 9.83984 18.5625 9.70703 18.1719C9.57422 17.7812 9.50781 17.3574 9.50781 16.9004ZM10.5918 16.7656V16.9004C10.5918 17.2168 10.6289 17.5156 10.7031 17.7969C10.7773 18.0742 10.8887 18.3203 11.0371 18.5352C11.1895 18.75 11.3789 18.9199 11.6055 19.0449C11.832 19.166 12.0957 19.2266 12.3965 19.2266C12.6934 19.2266 12.9531 19.166 13.1758 19.0449C13.4023 18.9199 13.5898 18.75 13.7383 18.5352C13.8867 18.3203 13.998 18.0742 14.0723 17.7969C14.1504 17.5156 14.1895 17.2168 14.1895 16.9004V16.7656C14.1895 16.4531 14.1504 16.1582 14.0723 15.8809C13.998 15.5996 13.8848 15.3516 13.7324 15.1367C13.584 14.918 13.3965 14.7461 13.1699 14.6211C12.9473 14.4961 12.6855 14.4336 12.3848 14.4336C12.0879 14.4336 11.8262 14.4961 11.5996 14.6211C11.377 14.7461 11.1895 14.918 11.0371 15.1367C10.8887 15.3516 10.7773 15.5996 10.7031 15.8809C10.6289 16.1582 10.5918 16.4531 10.5918 16.7656ZM20.7461 13.6602H21.7305V19.8652C21.7305 20.4238 21.6172 20.9004 21.3906 21.2949C21.1641 21.6895 20.8477 21.9883 20.4414 22.1914C20.0391 22.3984 19.5742 22.502 19.0469 22.502C18.8281 22.502 18.5703 22.4668 18.2734 22.3965C17.9805 22.3301 17.6914 22.2148 17.4062 22.0508C17.125 21.8906 16.8887 21.6738 16.6973 21.4004L17.2656 20.7559C17.5312 21.0762 17.8086 21.2988 18.0977 21.4238C18.3906 21.5488 18.6797 21.6113 18.9648 21.6113C19.3086 21.6113 19.6055 21.5469 19.8555 21.418C20.1055 21.2891 20.2988 21.0977 20.4355 20.8438C20.5762 20.5938 20.6465 20.2852 20.6465 19.918V15.0547L20.7461 13.6602ZM16.3809 16.9004V16.7773C16.3809 16.293 16.4375 15.8535 16.5508 15.459C16.668 15.0605 16.834 14.7188 17.0488 14.4336C17.2676 14.1484 17.5312 13.9297 17.8398 13.7773C18.1484 13.6211 18.4961 13.543 18.8828 13.543C19.2812 13.543 19.6289 13.6133 19.9258 13.7539C20.2266 13.8906 20.4805 14.0918 20.6875 14.3574C20.8984 14.6191 21.0645 14.9355 21.1855 15.3066C21.3066 15.6777 21.3906 16.0977 21.4375 16.5664V17.1055C21.3945 17.5703 21.3105 17.9883 21.1855 18.3594C21.0645 18.7305 20.8984 19.0469 20.6875 19.3086C20.4805 19.5703 20.2266 19.7715 19.9258 19.9121C19.625 20.0488 19.2734 20.1172 18.8711 20.1172C18.4922 20.1172 18.1484 20.0371 17.8398 19.877C17.5352 19.7168 17.2734 19.4922 17.0547 19.2031C16.8359 18.9141 16.668 18.5742 16.5508 18.1836C16.4375 17.7891 16.3809 17.3613 16.3809 16.9004ZM17.4648 16.7773V16.9004C17.4648 17.2168 17.4961 17.5137 17.5586 17.791C17.625 18.0684 17.7246 18.3125 17.8574 18.5234C17.9941 18.7344 18.168 18.9004 18.3789 19.0215C18.5898 19.1387 18.8418 19.1973 19.1348 19.1973C19.4941 19.1973 19.791 19.1211 20.0254 18.9688C20.2598 18.8164 20.4453 18.6152 20.582 18.3652C20.7227 18.1152 20.832 17.8438 20.9102 17.5508V16.1387C20.8672 15.9238 20.8008 15.7168 20.7109 15.5176C20.625 15.3145 20.5117 15.1348 20.3711 14.9785C20.2344 14.8184 20.0645 14.6914 19.8613 14.5977C19.6582 14.5039 19.4199 14.457 19.1465 14.457C18.8496 14.457 18.5938 14.5195 18.3789 14.6445C18.168 14.7656 17.9941 14.9336 17.8574 15.1484C17.7246 15.3594 17.625 15.6055 17.5586 15.8867C17.4961 16.1641 17.4648 16.4609 17.4648 16.7773ZM23.0898 16.9004V16.7656C23.0898 16.3086 23.1562 15.8848 23.2891 15.4941C23.4219 15.0996 23.6133 14.7578 23.8633 14.4688C24.1133 14.1758 24.416 13.9492 24.7715 13.7891C25.127 13.625 25.5254 13.543 25.9668 13.543C26.4121 13.543 26.8125 13.625 27.168 13.7891C27.5273 13.9492 27.832 14.1758 28.082 14.4688C28.3359 14.7578 28.5293 15.0996 28.6621 15.4941C28.7949 15.8848 28.8613 16.3086 28.8613 16.7656V16.9004C28.8613 17.3574 28.7949 17.7812 28.6621 18.1719C28.5293 18.5625 28.3359 18.9043 28.082 19.1973C27.832 19.4863 27.5293 19.7129 27.1738 19.877C26.8223 20.0371 26.4238 20.1172 25.9785 20.1172C25.5332 20.1172 25.1328 20.0371 24.7773 19.877C24.4219 19.7129 24.1172 19.4863 23.8633 19.1973C23.6133 18.9043 23.4219 18.5625 23.2891 18.1719C23.1562 17.7812 23.0898 17.3574 23.0898 16.9004ZM24.1738 16.7656V16.9004C24.1738 17.2168 24.2109 17.5156 24.2852 17.7969C24.3594 18.0742 24.4707 18.3203 24.6191 18.5352C24.7715 18.75 24.9609 18.9199 25.1875 19.0449C25.4141 19.166 25.6777 19.2266 25.9785 19.2266C26.2754 19.2266 26.5352 19.166 26.7578 19.0449C26.9844 18.9199 27.1719 18.75 27.3203 18.5352C27.4688 18.3203 27.5801 18.0742 27.6543 17.7969C27.7324 17.5156 27.7715 17.2168 27.7715 16.9004V16.7656C27.7715 16.4531 27.7324 16.1582 27.6543 15.8809C27.5801 15.5996 27.4668 15.3516 27.3145 15.1367C27.166 14.918 26.9785 14.7461 26.752 14.6211C26.5293 14.4961 26.2676 14.4336 25.9668 14.4336C25.6699 14.4336 25.4082 14.4961 25.1816 14.6211C24.959 14.7461 24.7715 14.918 24.6191 15.1367C24.4707 15.3516 24.3594 15.5996 24.2852 15.8809C24.2109 16.1582 24.1738 16.4531 24.1738 16.7656Z" fill="#42A3E2"/>
</svg>
