<svg width="24" height="24" viewBox="0 0 24 24" fill="none" xmlns="http://www.w3.org/2000/svg">
<g id="Frame 427320541">
<g id="Group">
<path id="Vector" d="M12.0009 15.6496C14.0153 15.6496 15.6483 14.0163 15.6483 12.0014C15.6483 9.98656 14.0153 8.35315 12.0009 8.35315C9.98648 8.35315 8.35352 9.98656 8.35352 12.0014C8.35352 14.0163 9.98648 15.6496 12.0009 15.6496Z" stroke="#ffffff" stroke-width="2" stroke-linecap="round" stroke-linejoin="round"/>
<g id="Group_2">
<path id="Vector_2" d="M12.75 6C12.75 5.58579 12.4142 5.25 12 5.25C11.5858 5.25 11.25 5.58579 11.25 6H12.75ZM11.25 6V8.70631H12.75V6H11.25Z" fill="#ffffff"/>
<path id="Vector_3" d="M11.25 18C11.25 18.4142 11.5858 18.75 12 18.75C12.4142 18.75 12.75 18.4142 12.75 18H11.25ZM11.25 15.2937V18H12.75V15.2937H11.25Z" fill="#ffffff"/>
</g>
<g id="Group_3">
<path id="Vector_4" d="M6 11.2513C5.58579 11.2513 5.25 11.5871 5.25 12.0013C5.25 12.4156 5.58579 12.7513 6 12.7513V11.2513ZM6 12.7513H8.70569V11.2513H6V12.7513Z" fill="#ffffff"/>
<path id="Vector_5" d="M18.0006 12.7513C18.4148 12.7513 18.7506 12.4156 18.7506 12.0013C18.7506 11.5871 18.4148 11.2513 18.0006 11.2513V12.7513ZM15.2949 12.7513H18.0006V11.2513H15.2949V12.7513Z" fill="#ffffff"/>
</g>
</g>
<rect x="1" y="1" width="22" height="22" rx="11" stroke="#ffffff" stroke-width="2"/>
</g>
</svg>
