<svg width="32" height="32" viewBox="0 0 32 32" fill="none" xmlns="http://www.w3.org/2000/svg">
<g id="logout_FILL1_wght300_GRAD0_opsz24 2">
<path id="Vector" d="M7.07824 27.3334C6.40472 27.3334 5.83464 27.1 5.36797 26.6334C4.9013 26.1667 4.66797 25.5966 4.66797 24.9231V7.07702C4.66797 6.40351 4.9013 5.83341 5.36797 5.36675C5.83464 4.90008 6.40472 4.66675 7.07824 4.66675H16.0141V6.66672H7.07824C6.97566 6.66672 6.88162 6.70945 6.79613 6.79492C6.71067 6.8804 6.66794 6.97444 6.66794 7.07702V24.9231C6.66794 25.0257 6.71067 25.1197 6.79613 25.2052C6.88162 25.2906 6.97566 25.3334 7.07824 25.3334H16.0141V27.3334H7.07824ZM21.6423 21.6923L20.2577 20.2462L23.5039 17H12.1295V15.0001H23.5039L20.2577 11.7539L21.6423 10.3078L27.3346 16L21.6423 21.6923Z" fill="#0000FE"/>
</g>
</svg>
