<svg width="10" height="8" viewBox="0 0 10 8" fill="none" xmlns="http://www.w3.org/2000/svg">
<g id="Group">
<path id="Vector" d="M3.79459 7.79162L0.148316 3.7978C-0.0768023 3.55109 -0.0419249 3.18535 0.227583 2.97928C0.49709 2.7732 0.896598 2.80513 1.12172 3.05184L4.76799 7.04566C4.88214 7.16757 4.92971 7.32143 4.91385 7.46945C4.898 7.61748 4.8219 7.7597 4.68873 7.86419C4.41922 8.07026 4.01971 8.03834 3.79459 7.79162Z" fill="#ffffff"/>
<path id="Vector_2" d="M4.86275 7.72777L9.89146 0.906925C10.088 0.639896 10.0119 0.280014 9.7234 0.10006C9.4317 -0.0798941 9.03855 -0.0102613 8.84197 0.253865L3.81326 7.07471C3.71497 7.20823 3.68326 7.36496 3.71497 7.51008C3.74667 7.65521 3.83546 7.79163 3.98131 7.88161C4.27301 8.06157 4.66617 7.9948 4.86275 7.72777Z" fill="#ffffff"/>
</g>
</svg>
