<svg width="10" height="8" viewBox="0 0 10 8" fill="none" xmlns="http://www.w3.org/2000/svg">
<g id="Group">
<path id="Vector" d="M3.79459 7.79169L0.148316 3.79786C-0.0768023 3.55115 -0.0419249 3.18541 0.227583 2.97934C0.49709 2.77326 0.896598 2.80519 1.12172 3.0519L4.76799 7.04573C4.88214 7.16763 4.92971 7.32149 4.91385 7.46951C4.898 7.61754 4.8219 7.75976 4.68873 7.86425C4.41922 8.07032 4.01971 8.0384 3.79459 7.79169Z" fill="black"/>
<path id="Vector_2" d="M4.8608 7.72777L9.88951 0.906925C10.0861 0.639896 10.01 0.280014 9.72145 0.10006C9.42975 -0.0798941 9.03659 -0.0102613 8.84001 0.253865L3.8113 7.07471C3.71301 7.20823 3.68131 7.36496 3.71301 7.51008C3.74472 7.65521 3.83351 7.79163 3.97936 7.88161C4.27106 8.06157 4.66421 7.9948 4.8608 7.72777Z" fill="black"/>
</g>
</svg>
