<svg width="32" height="32" viewBox="0 0 32 32" fill="none" xmlns="http://www.w3.org/2000/svg">
<g id="Icon - Sound">
<g id="Vector">
<path fill-rule="evenodd" clip-rule="evenodd" d="M3.33646 16.0002C3.33274 17.6397 3.25958 19.876 4.2739 20.7119C5.22003 21.4916 5.88591 21.2907 7.61325 21.4175C9.34182 21.5454 12.9899 26.6267 15.8023 25.0194C17.2531 23.8786 17.361 21.4868 17.361 16.0002C17.361 10.5135 17.2531 8.12181 15.8023 6.98095C12.9899 5.37251 9.34182 10.4549 7.61325 10.5829C5.88591 10.7097 5.22003 10.5088 4.2739 11.2885C3.25958 12.1244 3.33274 14.3607 3.33646 16.0002Z" fill="#ffffff"/>
<path fill-rule="evenodd" clip-rule="evenodd" d="M25.5428 7.05049C25.9963 6.73541 26.6195 6.84769 26.9346 7.30127C30.5723 12.5381 30.5848 19.4499 26.9342 24.6982C26.6188 25.1516 25.9956 25.2635 25.5422 24.9482C25.0889 24.6328 24.977 24.0096 25.2923 23.5562C28.4642 18.9961 28.4544 12.9948 25.292 8.44229C24.9769 7.98871 25.0892 7.36558 25.5428 7.05049Z" fill="#ffffff"/>
<path fill-rule="evenodd" clip-rule="evenodd" d="M22.279 10.218C22.7583 9.94362 23.3693 10.1097 23.6437 10.589C25.568 13.9506 25.5688 18.0591 23.643 21.4127C23.368 21.8916 22.7568 22.0569 22.2779 21.7819C21.7989 21.5069 21.6336 20.8956 21.9087 20.4167C23.4797 17.6809 23.4805 14.3296 21.908 11.5827C21.6336 11.1034 21.7997 10.4924 22.279 10.218Z" fill="#ffffff"/>
</g>
</g>
</svg>
