<svg width="32" height="32" viewBox="0 0 32 32" fill="none" xmlns="http://www.w3.org/2000/svg">
<g id="Icon - Video">
<g id="Vector">
<path d="M27.6108 6.27614C28.1315 5.75544 28.1315 4.91122 27.6108 4.39052C27.0901 3.86983 26.2459 3.86983 25.7252 4.39052L20.7257 9.39001C19.839 7.70931 18.0852 6.66667 15.8748 6.66667H8.15202C4.92266 6.66667 2.66797 8.89205 2.66797 12.0812V21.2521C2.66797 23.0567 3.3905 24.5533 4.60336 25.5123L3.05849 27.0572C2.53779 27.5779 2.53779 28.4221 3.05849 28.9428C3.57919 29.4635 4.42341 29.4635 4.94411 28.9428L27.6108 6.27614Z" fill="#FE0166"/>
<path d="M9.88692 26.6667H15.8748C19.1041 26.6667 21.3588 24.4399 21.3588 21.2521V15.1948L9.88692 26.6667Z" fill="#FE0166"/>
<path d="M23.4518 13.1018V20.5551C23.4518 21.3836 23.9052 22.1267 24.6358 22.4976L26.6105 23.4939C26.8785 23.632 27.1652 23.6983 27.4519 23.6983C27.7959 23.6983 28.1372 23.6008 28.4425 23.41C29.0012 23.0594 29.3345 22.4516 29.3345 21.7856V11.5494C29.3345 10.8834 29.0012 10.2756 28.4425 9.92367C27.9419 9.6083 27.3386 9.55053 26.7974 9.75617L23.4518 13.1018Z" fill="#FE0166"/>
</g>
</g>
</svg>
