<svg width="32" height="32" viewBox="0 0 32 32" fill="none" xmlns="http://www.w3.org/2000/svg">
<g id="videocam_FILL1_wght300_GRAD0_opsz24">
<path id="Vector" d="M6.06258 26C5.38907 26 4.81898 25.7667 4.35231 25.3C3.88567 24.8333 3.65234 24.2632 3.65234 23.5897V8.41033C3.65234 7.73682 3.88567 7.16673 4.35231 6.70006C4.81898 6.23339 5.38907 6.00006 6.06258 6.00006H21.242C21.9155 6.00006 22.4856 6.23339 22.9522 6.70006C23.4189 7.16673 23.6522 7.73682 23.6522 8.41033V14.5129L28.3445 9.82063V22.1794L23.6522 17.4872V23.5897C23.6522 24.2632 23.4189 24.8333 22.9522 25.3C22.4856 25.7667 21.9155 26 21.242 26H6.06258Z" fill="#0000FE"/>
</g>
</svg>
