<svg width="20" height="16" viewBox="0 0 20 16" fill="none" xmlns="http://www.w3.org/2000/svg">
<g id="Vector">
<path d="M19.3307 2.94257C18.9117 2.67861 18.3967 2.65526 17.9577 2.87861L16.4757 3.62683C15.9277 3.90298 15.5877 4.46135 15.5877 5.08267V10.9162C15.5877 11.5375 15.9277 12.0949 16.4757 12.373L17.9567 13.1202C18.1577 13.2238 18.3727 13.2735 18.5877 13.2735C18.8457 13.2735 19.1017 13.2004 19.3307 13.0573C19.7497 12.7943 19.9997 12.3385 19.9997 11.839V4.16186C19.9997 3.66237 19.7497 3.20653 19.3307 2.94257Z" fill="#1363BA"/>
<path d="M9.9051 15.5H4.11304C1.69102 15.5 0 13.8299 0 11.4391V4.56091C0 2.16904 1.69102 0.5 4.11304 0.5H9.9051C12.3271 0.5 14.0181 2.16904 14.0181 4.56091V11.4391C14.0181 13.8299 12.3271 15.5 9.9051 15.5Z" fill="#1363BA"/>
</g>
</svg>
